<svg xmlns="http://www.w3.org/2000/svg" viewBox="0 0 24.62 20"><defs><style>.cls-1{fill:#fff;}</style></defs><title>tt</title><g id="Layer_2" data-name="Layer 2"><g id="Home"><path class="cls-1" d="M24.62,2.37a10,10,0,0,1-2.9.79A5.06,5.06,0,0,0,23.94.37,10.23,10.23,0,0,1,20.73,1.6,5,5,0,0,0,17.05,0,5.06,5.06,0,0,0,12,5.05a4.83,4.83,0,0,0,.14,1.15A14.32,14.32,0,0,1,1.72.92,5,5,0,0,0,3.28,7.67,5.06,5.06,0,0,1,1,7v.06a5.06,5.06,0,0,0,4.05,5,5.27,5.27,0,0,1-1.33.17,4.94,4.94,0,0,1-1-.09,5.05,5.05,0,0,0,4.72,3.51A10.18,10.18,0,0,1,1.2,17.8c-.4,0-.8,0-1.2-.07A14.33,14.33,0,0,0,7.74,20,14.27,14.27,0,0,0,22.11,5.63V5A10.09,10.09,0,0,0,24.62,2.37Z"/></g></g></svg>